{"title":"The 13th Warrior 1999 DVDRip Xvid BigPerm LKRG","uid":6361855,"size":1233615892,"categoryP":"video","categoryS":"movies","magnet":"?xt=urn:btih:f28931994c28bd3e44e87e5f5f3b7a75d7c1147a&amp;dn=The+13th+Warrior+1999+DVDRip+Xvid+BigPerm+LKRG&amp;tr=udp%3A%2F%2Ftracker.openbittorrent.com%3A80&amp;tr=udp%3A%2F%2Fopen.demonii.com%3A1337&amp;tr=udp%3A%2F%2Ftracker.coppersurfer.tk%3A6969&amp;tr=udp%3A%2F%2Fexodus.desync.com%3A6969","seeders":1,"leechers":0,"uploader":".BONE.","files":2,"time":1304358821,"description":"Plot\n\nIn AD 922, an important emissary who is banished from his homeland. The nomadic\noutcast comes across a band of Norse warriors who coerce him into joining them\nwhen they are summoned to fight mysterious creatures legendary for consuming every\nliving...\n &lt;a href=&quot;\nhttp://www.imdb.com/title/tt0120657/&quot; rel=&quot;nofollow&quot; target=&quot;_NEW&quot;&gt;\nhttp://www.imdb.com/title/tt0120657/&lt;/a&gt;\n\n\nEncoded By .......: BigPerm1828\nRuntime ..........: 1h 42mn\nFile Size ........: 1.15 GiB\nResolution .......: 704x396\nIMDb URL .........: http://www.imdb.com/title/tt0120657/\nLanguage .........: English\nVideo\nID : 0\nFormat : MPEG-4 Visual\nFormat profile : Advanced Simple@L5\nFormat settings, BVOP : Yes\nFormat settings, QPel : No\nFormat settings, GMC : No warppoints\nFormat settings, Matrix : Default (H.263)\nCodec ID : XVID\nCodec ID/Hint : XviD\nDuration : 1h 42mn\nBit rate : 1 147 Kbps\nWidth : 704 pixels\nHeight : 396 pixels\nDisplay aspect ratio : 16:9\nFrame rate : 23.976 fps\nColor space : YUV\nChroma subsampling : 4:2:0\nBit depth : 8 bits\nScan type : Progressive\nCompression mode : Lossy\nBits/(Pixel*Frame) : 0.172\nStream size : 843 MiB (72%)\nWriting library : XviD 1.2.1 (UTC 2008-12-04)\n\nAudio\nID : 1\nFormat : AC-3\nFormat/Info : Audio Coding 3\nMode extension : CM (complete main)\nCodec ID : 2000\nDuration : 1h 42mn\nBit rate mode : Constant\nBit rate : 448 Kbps\nChannel(s) : 6 channels\nChannel positions : Front: L C R, Side: L R, LFE\nSampling rate : 48.0 KHz\nBit depth : 16 bits\nCompression mode : Lossy\nVideo delay : 42ms\nStream size : 329 MiB (28%)\nAlignment : Split accross interleaves\nInterleave, duration : 500 ms (11.99 video frames)\nInterleave, preload duration : 500 ms\n &lt;a href=&quot;\nhttp://leetleech.org/images/44290737042156100788.png&quot; rel=&quot;nofollow&quot; target=&quot;_NEW&quot;&gt;\nhttp://leetleech.org/images/44290737042156100788.png&lt;/a&gt;\n &lt;a href=&quot;\nhttp://leetleech.org/images/84286380438430337262.png&quot; rel=&quot;nofollow&quot; target=&quot;_NEW&quot;&gt;\nhttp://leetleech.org/images/84286380438430337262.png&lt;/a&gt;\n &lt;a href=&quot;\nhttp://leetleech.org/images/23071583593062984910.png&quot; rel=&quot;nofollow&quot; target=&quot;_NEW&quot;&gt;\nhttp://leetleech.org/images/23071583593062984910.png&lt;/a&gt;\n &lt;a href=&quot;\nhttp://leetleech.org/images/56422612988801214755.png&quot; rel=&quot;nofollow&quot; target=&quot;_NEW&quot;&gt;\nhttp://leetleech.org/images/56422612988801214755.png&lt;/a&gt;\n &lt;a href=&quot;\nhttp://leetleech.org/images/08877795045836319983.png&quot; rel=&quot;nofollow&quot; target=&quot;_NEW&quot;&gt;\nhttp://leetleech.org/images/08877795045836319983.png&lt;/a&gt;","torrent":{"xt":"urn:btih:f28931994c28bd3e44e87e5f5f3b7a75d7c1147a","amp;dn":"The+13th+Warrior+1999+DVDRip+Xvid+BigPerm+LKRG","amp;tr":["udp%3A%2F%2Ftracker.openbittorrent.com%3A80","udp%3A%2F%2Fopen.demonii.com%3A1337","udp%3A%2F%2Ftracker.coppersurfer.tk%3A6969","udp%3A%2F%2Fexodus.desync.com%3A6969"],"infoHash":"f28931994c28bd3e44e87e5f5f3b7a75d7c1147a","infoHashBuffer":{"type":"Buffer","data":[242,137,49,153,76,40,189,62,68,232,126,95,95,59,122,117,215,193,20,122]},"announce":[],"urlList":[]}}